<svg width="266" height="69" viewBox="0 0 266 69" fill="none" xmlns="http://www.w3.org/2000/svg">
<path d="M25.5336 63.1887C12.0254 60.3838 2.22002 48.1757 2.22002 34.1582C2.22002 21.1264 10.7565 9.59657 22.8468 5.82515L20.2467 9.727C19.9031 10.2432 20.037 10.942 20.5443 11.2908C20.7351 11.4212 20.9502 11.4843 21.1653 11.4843C21.5211 11.4843 21.8714 11.31 22.0852 10.9887L26.21 4.79957C26.3927 4.52636 26.4468 4.18587 26.3602 3.86736C26.2736 3.54884 26.0531 3.28524 25.7582 3.14657L19.3186 0.105544C18.7653 -0.156684 18.1024 0.0863232 17.844 0.650595C17.5856 1.21487 17.8264 1.88485 18.3825 2.14708L21.8606 3.7891C9.03159 7.9573 0 20.2601 0 34.1582C0 49.2398 10.5508 62.3773 25.0885 65.395C25.1643 65.4101 25.2387 65.4183 25.3117 65.4183C25.8285 65.4183 26.2898 65.0504 26.3981 64.5177C26.5212 63.9081 26.1343 63.3136 25.5336 63.1887Z" fill="#00695C"/>
<path d="M62.8398 34.1574C62.8398 19.0772 52.2877 5.93833 37.7513 2.91927C37.1507 2.7957 36.5649 3.18699 36.4418 3.79657C36.3187 4.40614 36.7056 5.00062 37.3063 5.12556C50.8144 7.93181 60.6198 20.1412 60.6198 34.1574C60.6198 46.8144 52.4825 58.1163 40.8899 62.1733L43.2398 58.649C43.5835 58.1328 43.4495 57.434 42.9422 57.0852C42.4322 56.7351 41.7436 56.8724 41.4013 57.3873L37.5038 63.2359C37.1371 63.4886 36.9383 63.9471 37.0411 64.4125C37.1182 64.7558 37.3482 65.0139 37.6363 65.1594C37.6702 65.18 37.6918 65.213 37.727 65.2294L44.1679 68.2691C44.3194 68.3405 44.479 68.3748 44.6346 68.3748C45.0526 68.3748 45.4544 68.1345 45.6411 67.724C45.8995 67.1598 45.6601 66.4898 45.104 66.2275L41.2958 64.4304C54.1181 60.1647 62.8398 48.1283 62.8398 34.1574Z" fill="#00695C"/>
<path d="M40.1117 20.876C44.9427 20.876 49.058 25.5755 48.663 30.4206C48.1881 35.8519 42.3195 40.8013 37.571 44.7429C35.1548 46.757 32.9105 48.6407 31.8742 50.1742C31.766 50.328 31.5941 50.4049 31.421 50.4049C31.2478 50.4049 31.076 50.328 30.9678 50.1742C29.9315 48.6407 27.6885 46.7584 25.2709 44.7429C20.5238 40.8013 14.6538 35.8519 14.179 30.4645C13.7434 25.5646 17.9169 20.8856 22.7398 20.8856C23.1754 20.8856 23.6178 20.9241 24.0629 21.0037C27.1703 21.5735 29.9315 23.8072 31.3993 26.829C32.8672 23.8072 35.6283 21.5735 38.7358 21.0037C39.1998 20.9172 39.6585 20.876 40.1117 20.876ZM40.1117 18.623C39.5191 18.623 38.9212 18.678 38.3354 18.7878C35.6797 19.2738 33.2419 20.7181 31.4007 22.8228C29.5595 20.7181 27.1189 19.2738 24.4579 18.7864C23.887 18.6835 23.312 18.6327 22.7411 18.6327C19.8352 18.6327 16.9685 19.9658 14.8757 22.2888C12.7639 24.6337 11.7046 27.6871 11.9698 30.6663C12.5339 37.0779 19.0844 42.516 23.8667 46.4865C25.9244 48.2027 28.2621 50.1509 29.1374 51.4483C29.6785 52.2185 30.524 52.6578 31.421 52.6578C32.3193 52.6578 33.1634 52.2185 33.6802 51.484C34.5812 50.1509 36.9176 48.2041 38.9793 46.4852C43.7589 42.5174 50.308 37.0793 50.8722 30.621C51.1157 27.6281 50.0375 24.5774 47.9149 22.2366C45.8342 19.9397 42.9905 18.623 40.1117 18.623Z" fill="#00695C"/>
<path d="M80.4867 26.5047V39.9688H78.8487V33.7227H71.8287V39.9688H70.1727V26.5047H71.8287V32.2467H78.8487V26.5047H80.4867ZM88.8015 26.2707L95.1375 39.9688H93.3375L91.9515 36.9267H85.6515L84.2655 39.9688H82.4655L88.8015 26.2707ZM88.8015 30.0687L86.3535 35.4688H91.2675L88.8015 30.0687ZM105.084 26.5047L99.9896 34.3707V39.9688H98.3516V34.3707L93.2396 26.5047H95.1476L99.1796 32.7507L103.176 26.5047H105.084ZM109.526 26.2707L115.862 39.9688H114.062L112.676 36.9267H106.376L104.99 39.9688H103.19L109.526 26.2707ZM109.526 30.0687L107.078 35.4688H111.992L109.526 30.0687ZM125.786 26.5047V27.9627H120.782V39.9688H119.126V27.9627H114.122V26.5047H125.786ZM130.374 26.2707L136.71 39.9688H134.91L133.524 36.9267H127.224L125.838 39.9688H124.038L130.374 26.2707ZM130.374 30.0687L127.926 35.4688H132.84L130.374 30.0687ZM142.981 39.9688V26.5047H148.237C150.145 26.5047 151.699 27.1047 152.899 28.3047C154.111 29.5167 154.717 31.1607 154.717 33.2367C154.717 35.3247 154.105 36.9687 152.881 38.1687C151.669 39.3687 150.109 39.9688 148.201 39.9688H142.981ZM148.255 27.9087H144.619V38.5647H148.219C149.671 38.5647 150.841 38.1027 151.729 37.1787C152.629 36.2427 153.079 34.9287 153.079 33.2367C153.079 31.5447 152.635 30.2367 151.747 29.3127C150.859 28.3767 149.695 27.9087 148.255 27.9087ZM162.958 24.3267C162.958 24.5907 162.868 24.8127 162.688 24.9927C162.508 25.1727 162.286 25.2627 162.022 25.2627C161.758 25.2627 161.536 25.1727 161.356 24.9927C161.176 24.8127 161.086 24.5907 161.086 24.3267C161.086 24.0747 161.176 23.8587 161.356 23.6787C161.536 23.4987 161.758 23.4087 162.022 23.4087C162.286 23.4087 162.508 23.4987 162.688 23.6787C162.868 23.8587 162.958 24.0747 162.958 24.3267ZM165.64 24.3267C165.64 24.5907 165.55 24.8127 165.37 24.9927C165.202 25.1727 164.986 25.2627 164.722 25.2627C164.458 25.2627 164.23 25.1727 164.038 24.9927C163.858 24.8127 163.768 24.5907 163.768 24.3267C163.768 24.0747 163.858 23.8587 164.038 23.6787C164.23 23.4987 164.458 23.4087 164.722 23.4087C164.986 23.4087 165.202 23.4987 165.37 23.6787C165.55 23.8587 165.64 24.0747 165.64 24.3267ZM158.674 28.2147C159.958 26.9547 161.578 26.3247 163.534 26.3247C165.49 26.3247 167.104 26.9547 168.376 28.2147C169.648 29.4507 170.284 31.1247 170.284 33.2367C170.284 35.3367 169.648 37.0167 168.376 38.2767C167.092 39.5247 165.478 40.1488 163.534 40.1488C161.578 40.1488 159.958 39.5247 158.674 38.2767C157.39 37.0167 156.748 35.3367 156.748 33.2367C156.748 31.1367 157.39 29.4627 158.674 28.2147ZM163.534 27.8007C162.034 27.8007 160.81 28.2867 159.862 29.2587C158.902 30.2427 158.422 31.5687 158.422 33.2367C158.422 34.8927 158.902 36.2187 159.862 37.2147C160.81 38.1867 162.034 38.6727 163.534 38.6727C165.01 38.6727 166.228 38.1867 167.188 37.2147C168.148 36.2187 168.628 34.8927 168.628 33.2367C168.628 31.5687 168.148 30.2427 167.188 29.2587C166.228 28.2867 165.01 27.8007 163.534 27.8007ZM172.952 26.3067L181.394 35.9907V26.5047H183.032V40.1668L174.608 30.5007V39.9688H172.952V26.3067ZM186.294 39.9688V26.5047H191.55C193.458 26.5047 195.012 27.1047 196.212 28.3047C197.424 29.5167 198.03 31.1607 198.03 33.2367C198.03 35.3247 197.418 36.9687 196.194 38.1687C194.982 39.3687 193.422 39.9688 191.514 39.9688H186.294ZM191.568 27.9087H187.932V38.5647H191.532C192.984 38.5647 194.154 38.1027 195.042 37.1787C195.942 36.2427 196.392 34.9287 196.392 33.2367C196.392 31.5447 195.948 30.2367 195.06 29.3127C194.172 28.3767 193.008 27.9087 191.568 27.9087ZM205.533 24.3267C205.533 24.5907 205.443 24.8127 205.263 24.9927C205.083 25.1727 204.861 25.2627 204.597 25.2627C204.333 25.2627 204.111 25.1727 203.931 24.9927C203.751 24.8127 203.661 24.5907 203.661 24.3267C203.661 24.0747 203.751 23.8587 203.931 23.6787C204.111 23.4987 204.333 23.4087 204.597 23.4087C204.861 23.4087 205.083 23.4987 205.263 23.6787C205.443 23.8587 205.533 24.0747 205.533 24.3267ZM208.215 24.3267C208.215 24.5907 208.125 24.8127 207.945 24.9927C207.777 25.1727 207.561 25.2627 207.297 25.2627C207.033 25.2627 206.805 25.1727 206.613 24.9927C206.433 24.8127 206.343 24.5907 206.343 24.3267C206.343 24.0747 206.433 23.8587 206.613 23.6787C206.805 23.4987 207.033 23.4087 207.297 23.4087C207.561 23.4087 207.777 23.4987 207.945 23.6787C208.125 23.8587 208.215 24.0747 208.215 24.3267ZM209.637 26.5047H211.293V34.9107C211.293 36.5667 210.813 37.8567 209.853 38.7808C208.905 39.6928 207.597 40.1488 205.929 40.1488C204.261 40.1488 202.947 39.6928 201.987 38.7808C201.039 37.8567 200.565 36.5667 200.565 34.9107V26.5047H202.203V34.8927C202.203 36.1167 202.521 37.0527 203.157 37.7007C203.805 38.3487 204.729 38.6727 205.929 38.6727C207.105 38.6727 208.017 38.3487 208.665 37.7007C209.313 37.0527 209.637 36.1167 209.637 34.8927V26.5047ZM224.463 39.9688H222.609L219.585 34.5687H216.075V39.9688H214.419V26.5047H219.621C220.833 26.5047 221.823 26.8527 222.591 27.5487C223.371 28.2567 223.761 29.2527 223.761 30.5367C223.761 31.4847 223.545 32.2767 223.113 32.9127C222.681 33.5487 222.075 34.0107 221.295 34.2987L224.463 39.9688ZM216.057 27.9627V33.1107H219.423C220.203 33.1107 220.839 32.8887 221.331 32.4447C221.823 31.9887 222.069 31.3527 222.069 30.5367C222.069 29.7207 221.823 29.0907 221.331 28.6467C220.839 28.1907 220.203 27.9627 219.423 27.9627H216.057Z" fill="#313131"/>
</svg>
